<svg width="63" height="14" viewBox="0 0 63 14" fill="none" xmlns="http://www.w3.org/2000/svg">
<path d="M1.932 10.436L6.876 10.148L7.152 5.216L6.504 4.568L6.204 8.972L1.116 3.896L0.612 4.388L5.688 9.476L1.272 9.788L1.932 10.436ZM14.2441 11V3.49414H16.9102V2.54492H10.5234V3.49414H13.1895V11H14.2441ZM19.0781 2.54492H18.0234V8.03516C18.0234 9.83984 19.2832 11.1406 21.3809 11.1406C23.4785 11.1406 24.7383 9.83984 24.7383 8.03516V2.54492H23.6836V7.96484C23.6836 9.24219 22.8457 10.168 21.3809 10.168C19.916 10.168 19.0781 9.24219 19.0781 7.96484V2.54492ZM29.5723 11V3.49414H32.2383V2.54492H25.8516V3.49414H28.5176V11H29.5723ZM36.3926 2.4043C33.9961 2.4043 32.4961 4.0918 32.4961 6.77539C32.4961 9.45898 33.9961 11.1406 36.3926 11.1406C38.7891 11.1406 40.2891 9.45898 40.2891 6.77539C40.2891 4.0918 38.7891 2.4043 36.3926 2.4043ZM36.3926 3.37695C38.1211 3.37695 39.2051 4.68945 39.2051 6.77539C39.2051 8.85547 38.1211 10.168 36.3926 10.168C34.6641 10.168 33.5801 8.85547 33.5801 6.77539C33.5801 4.68945 34.6641 3.37695 36.3926 3.37695ZM42.6562 7.6543H44.6777L46.4883 11H47.7246L45.7676 7.49023C46.8281 7.15625 47.4668 6.24219 47.4668 5.06445C47.4668 3.54102 46.4004 2.54492 44.7715 2.54492H41.6016V11H42.6562V7.6543ZM42.6562 3.48242H44.6309C45.7207 3.48242 46.377 4.08594 46.377 5.09961C46.377 6.13672 45.7617 6.72266 44.6777 6.72266H42.6562V3.48242ZM54.0352 10.0508H49.8516V7.14453H53.8184V6.20703H49.8516V3.49414H54.0352V2.54492H48.7969V11H54.0352V10.0508ZM55.4297 2.54492V11H58.2715C60.7852 11 62.2617 9.43555 62.2617 6.76953C62.2617 4.10938 60.7793 2.54492 58.2715 2.54492H55.4297ZM56.4844 3.49414H58.2012C60.123 3.49414 61.1836 4.66602 61.1836 6.78125C61.1836 8.87891 60.1172 10.0508 58.2012 10.0508H56.4844V3.49414Z" fill="#1B1B1B"/>
</svg>
