<svg width="800" height="481" viewBox="0 0 800 481" fill="none" xmlns="http://www.w3.org/2000/svg">
<g clip-path="url(#clip0_306_2)">
<rect width="800" height="481" fill="url(#paint0_linear_306_2)"/>
<path d="M310.435 -92C310.435 -1.17844 237.323 72.4351 147.149 72.4351C56.975 72.4351 -16.1373 -1.17844 -16.1373 -92C-16.1373 -182.822 56.975 -256.435 147.149 -256.435C237.323 -256.435 310.435 -182.822 310.435 -92Z" stroke="white" stroke-opacity="0.2" stroke-width="2"/>
<circle cx="146" cy="-92" r="300" stroke="white" stroke-opacity="0.05" stroke-width="2"/>
<path d="M381.664 -92.0001C381.664 38.1582 276.663 143.664 147.149 143.664C17.6342 143.664 -87.3665 38.1582 -87.3665 -92.0001C-87.3665 -222.158 17.6342 -327.664 147.149 -327.664C276.663 -327.664 381.664 -222.158 381.664 -92.0001Z" stroke="white" stroke-opacity="0.13" stroke-width="2"/>
<circle cx="188" cy="482" r="148" stroke="white" stroke-opacity="0.2" stroke-width="2"/>
<circle cx="909" cy="541" r="300" stroke="white" stroke-opacity="0.2" stroke-width="2"/>
</g>
<defs>
<linearGradient id="paint0_linear_306_2" x1="791" y1="13.7866" x2="277.437" y2="472.7" gradientUnits="userSpaceOnUse">
<stop stop-color="#1FD390"/>
<stop offset="1" stop-color="#45EAAC"/>
</linearGradient>
<clipPath id="clip0_306_2">
<rect width="800" height="481" fill="white"/>
</clipPath>
</defs>
</svg>
