<svg width="34" height="35" viewBox="0 0 34 35" fill="none" xmlns="http://www.w3.org/2000/svg">
<path d="M25.6091 29.2554C23.6805 30.7623 21.4852 31.6408 19.089 31.9902C15.5397 32.5169 11.9232 31.6923 8.94211 29.6766C5.96099 27.661 3.82798 24.5982 2.95739 21.083C1.99934 17.2384 2.53765 13.5766 4.48262 10.1302C4.57226 9.97129 4.68752 9.82709 4.79075 9.67603C4.98378 9.66791 5.12552 9.55062 5.28084 9.4534C7.16167 8.27646 9.18676 7.50538 11.394 7.25116C11.2901 7.64756 11.6336 7.54065 11.7961 7.58906C17.622 9.32303 21.1661 13.1715 22.2656 19.2187C22.8537 22.4535 21.4816 25.0806 18.654 26.3975C18.4885 26.4747 18.3257 26.6069 18.098 26.548C19.787 24.7915 20.1673 23.0266 19.2057 21.4834C18.2894 20.013 16.6198 19.4086 14.9836 19.9549C13.6084 20.4141 12.5841 21.7225 12.6738 22.9346C12.7252 22.8435 12.7659 22.7721 12.8061 22.7004C13.3661 21.7018 14.5521 21.166 15.6171 21.4307C16.5928 21.6733 17.2972 22.5685 17.3254 23.6018C17.3612 24.9158 16.7319 25.861 15.5357 26.1885C14.1021 26.5804 12.8077 26.2213 11.735 25.2221C10.7271 24.2833 10.0156 23.1343 9.6898 21.7606C9.26544 19.9711 9.23531 18.161 9.36045 16.3398C9.40079 15.7529 9.45003 15.1667 9.49523 14.5802C9.3432 14.6995 9.21876 14.8508 9.13061 15.0237C7.13137 18.6672 7.5312 22.2625 9.35372 25.8248C9.43674 25.9703 9.54766 26.0977 9.67999 26.1994C13.3379 29.212 17.3771 29.8794 21.7523 28.0861C24.27 27.0545 26.1014 25.2044 27.4101 22.8152C27.542 22.9099 27.5255 23.0533 27.5108 23.1826C27.351 24.5831 27.0538 25.9515 26.5138 27.2551C26.234 27.9315 25.912 28.5894 25.6091 29.2554ZM15.7379 16.1003C15.3672 16.1059 15.0136 16.2584 14.753 16.5248C14.4925 16.7912 14.346 17.1503 14.345 17.5247C14.3492 18.2966 14.9994 18.9411 15.7586 18.926C16.1204 18.9151 16.4639 18.7628 16.7168 18.5011C16.9696 18.2395 17.112 17.8889 17.114 17.5233C17.1215 16.7287 16.5107 16.097 15.7379 16.1003Z" fill="#0E9F7C"/>
<path d="M31.3639 19.1302C31.1457 20.2829 30.9165 21.4192 30.5761 22.5425C30.2408 23.6505 29.7043 24.6474 29.0807 25.5988C28.1449 27.0264 27.0146 28.277 25.6093 29.2557C25.9126 28.5894 26.2339 27.9312 26.5142 27.2558C27.0537 25.9515 27.351 24.5837 27.5111 23.1834C27.5261 23.054 27.5422 22.9104 27.4101 22.8154C27.4776 22.5764 27.5182 22.3305 27.5312 22.0824C27.5972 19.7853 27.1008 17.6106 26.1418 15.538C25.282 13.6765 24.0368 12.1056 22.5503 10.7195C21.5323 9.89748 20.4673 9.14934 19.2831 8.58701C16.7767 7.39809 14.1431 6.97846 11.3945 7.25147C9.1873 7.50506 7.16233 8.27666 5.28149 9.45347C5.12532 9.55053 4.98421 9.66781 4.79077 9.67588C5.68662 8.10577 6.91782 6.83997 8.34023 5.76326C14.1319 1.37538 22.3069 2.02145 27.3618 7.25349C27.4298 7.32426 27.4869 7.4072 27.549 7.485C28.4277 8.51624 29.2186 9.59704 29.8492 10.8133C30.4945 12.0395 30.9499 13.3584 31.1995 14.7239C31.457 16.1669 31.6492 17.6218 31.3639 19.1302Z" fill="#28B089"/>
<path d="M22.5504 10.7195C24.0369 12.1057 25.2826 13.6772 26.1426 15.5376C27.1007 17.6104 27.5976 19.7852 27.5319 22.0827C27.5188 22.3309 27.4781 22.5768 27.4105 22.8157C26.1018 25.2048 24.2704 27.0548 21.7527 28.0866C17.3775 29.88 13.3383 29.2126 9.6804 26.1999C9.54806 26.0982 9.43714 25.9709 9.35412 25.8253C7.5316 22.2632 7.13178 18.6678 9.13101 15.0242C9.21917 14.8514 9.3436 14.7 9.49563 14.5807C9.45044 15.1673 9.4012 15.7535 9.36086 16.3403C9.23572 18.1616 9.26585 19.9717 9.69021 21.7612C10.016 23.1348 10.7275 24.2838 11.7354 25.2226C12.8081 26.2218 14.1025 26.5811 15.5361 26.189C16.7324 25.8618 17.3616 24.9164 17.3258 23.6023C17.2977 22.569 16.5933 21.6739 15.6175 21.4313C14.5526 21.1666 13.3665 21.7022 12.8065 22.701C12.7665 22.7726 12.7257 22.844 12.6743 22.9351C12.5846 21.7227 13.6089 20.4144 14.984 19.9555C16.6202 19.409 18.2898 20.0135 19.2061 21.484C20.1677 23.0271 19.7873 24.7921 18.0984 26.5485C18.3261 26.6075 18.4888 26.4753 18.6544 26.3981C21.482 25.0811 22.8541 22.4541 22.266 19.2192C21.1665 13.172 17.6226 9.32351 11.7965 7.5896C11.634 7.54119 11.2905 7.6481 11.3944 7.2517C14.1432 6.97961 16.7771 7.39878 19.2834 8.58805C20.4677 9.14951 21.532 9.89794 22.5504 10.7195Z" fill="#FBFCFC"/>
<path d="M15.7379 16.1003C16.5107 16.097 17.1215 16.7285 17.1139 17.5233C17.1119 17.8889 16.9695 18.2395 16.7167 18.5011C16.4638 18.7628 16.1203 18.9151 15.7585 18.926C14.9993 18.9411 14.3491 18.2966 14.3449 17.5248C14.3459 17.1503 14.4925 16.7912 14.753 16.5248C15.0135 16.2584 15.3672 16.1059 15.7379 16.1003Z" fill="#FBFCFC"/>
</svg>
